HIERARCHY
ROOT pelvis
{
  OFFSET 0 100 0
  CHANNELS 6 Xposition Yposition Zposition Zrotation Xrotation Yrotation
  JOINT pelvis_right_femur
  {
    OFFSET -10.78128 -3.44521 -0.5502486
    CHANNELS 3 Zrotation Xrotation Yrotation
    JOINT right_femur_tibia
    {
      OFFSET -0.8047443 -44.0398 -0.1307829
      CHANNELS 3 Zrotation Xrotation Yrotation
      JOINT right_tibia_foot
      {
        OFFSET 3.006224 -47.83518 -5
        CHANNELS 3 Zrotation Xrotation Yrotation
        End Site
        {
          OFFSET 0 -5 15
        }
      }
    }
  }
  JOINT pelvis_left_femur
  {
    OFFSET 10.78128 -3.44521 -0.5502486
    CHANNELS 3 Zrotation Xrotation Yrotation
    JOINT left_femur_tibia
    {
      OFFSET 0.8047443 -44.0398 -0.1307829
      CHANNELS 3 Zrotation Xrotation Yrotation
      JOINT left_tibia_foot
      {
        OFFSET -4.370144 -48.10324 -4.275266
        CHANNELS 3 Zrotation Xrotation Yrotation
        End Site
        {
          OFFSET 0 -5 15
        }
      }
    }
  }
  JOINT pelvis_spine1
  {
    OFFSET 0 6.468898 -3.129235
    CHANNELS 3 Zrotation Xrotation Yrotation
    JOINT spine1
    {
      OFFSET 0 23.15396 4.99043
      CHANNELS 3 Zrotation Xrotation Yrotation
      JOINT spine2
      {
        OFFSET 0 20.79997 -5.064912
        CHANNELS 3 Zrotation Xrotation Yrotation
        JOINT neck
        {
          OFFSET 0 14.38658 9.616178
          CHANNELS 3 Zrotation Xrotation Yrotation
          End Site
          {
            OFFSET 0 20 0
          }
        }
      }
      JOINT right_manubrium
      {
        OFFSET -5.722621 16.35077 3.967754
        CHANNELS 3 Zrotation Xrotation Yrotation
        JOINT right_clavicle
        {
          OFFSET -13.16364 1.694482 -4.693211
          CHANNELS 3 Zrotation Xrotation Yrotation
          JOINT right_humerus
          {
            OFFSET -28.5034 -0.3100689 -2.792744
            CHANNELS 3 Zrotation Xrotation Yrotation
            JOINT right_radius
            {
              OFFSET -25.15693 0.02248979 -1.271978
              CHANNELS 3 Zrotation Xrotation Yrotation
              End Site
              {
                OFFSET -15 0 0
              }
            }
          }
        }
      }
      JOINT left_manubrium
      {
        OFFSET 5.722621 16.35077 3.967754
        CHANNELS 3 Zrotation Xrotation Yrotation
        JOINT left_clavicle
        {
          OFFSET 13.16364 1.694482 -4.693211
          CHANNELS 3 Zrotation Xrotation Yrotation
          JOINT left_humerus
          {
            OFFSET 29.39168 -1.063119 -2.237045
            CHANNELS 3 Zrotation Xrotation Yrotation
            JOINT left_radius
            {
              OFFSET 24.59957 -0.9528479 0.9047498
              CHANNELS 3 Zrotation Xrotation Yrotation
              End Site
              {
                OFFSET 15 -0 -0
              }
            }
          }
        }
      }
    }
  }
}
MOTION
Frames: 23
Frame Time: 0.0416666666667
0 103.5113 0 2.71325 -2.571024 0.2678886 0.939782 -10.11991 8.303265 -0 37.44457 -0 -4.884571 -18.04611 -4.001123 -8.115617 11.78222 -23.83285 -0 4.930677 -0 8.886576 -15.01894 26.33131 -1.796954 -3.224213 5.600531 2.467116 10.24813 -7.072534 2.084797 22.15234 4.713797 1.998413 -25.45214 9.090137 5.920131 -19.0125 10.28026 86.03782 34.28015 -20.11411 -0 0 14.89084 -5.725347 8.0653 2.700718 5.74211 -20.15887 -1.90793 -96.25385 26.9623 25.03465 0 0 -13.22929 10.12355 17.67524 3.670334
0.2814714 103.5928 1.340749 2.141521 -1.278859 0.3433212 1.760016 -12.651 8.959301 -0 37.97123 -0 -4.326457 -17.88258 -3.800972 -7.861039 11.37073 -23.90752 -0 4.520407 -0 7.88132 -16.0357 26.35229 -1.929225 -3.317443 5.667479 2.443194 10.22201 -7.016692 2.064692 22.25318 4.639112 1.932144 -25.28766 9.009662 5.913005 -19.07286 10.27699 85.72208 34.2656 -19.64933 -0 0 15.15496 -5.927068 8.110434 2.841246 5.706277 -20.07288 -1.754922 -96.3305 26.76362 25.11509 0 0 -12.58928 10.17855 17.85849 3.418679
0.5026133 103.5822 2.956411 0.9457923 0.09512521 0.4161658 3.505303 -18.35436 8.386944 -0 36.14512 -0 -5.063023 -15.73264 -3.07451 -7.16073 11.24555 -23.11364 -0 4.554504 -0 6.761434 -18.17358 25.85847 -1.579498 -2.900911 5.366452 2.642113 10.23945 -7.325055 1.9587 21.73652 5.189835 2.272279 -25.94799 9.285003 5.837372 -18.8504 10.45149 86.71266 34.48329 -20.95753 -0 0 14.11199 -5.704117 8.149436 2.825192 5.906608 -20.51463 -2.044512 -95.43732 26.74057 24.18436 0 0 -15.17893 10.33377 16.63329 3.637232
0.7159713 103.4221 4.869041 0.2051284 0.9725508 0.523313 4.780566 -22.59602 8.178703 -0 33.75786 -0 -5.464613 -13.80008 -2.691875 -6.729314 11.33994 -22.27665 -0 4.865574 -0 6.719084 -19.43824 25.48495 -1.375535 -2.652915 5.185936 2.74833 10.25456 -7.501548 1.899847 21.44706 5.496259 2.467786 -26.30629 9.431867 5.787895 -18.70983 10.54605 87.31646 34.61868 -21.72992 -0 0 13.47367 -5.607312 8.176089 2.836599 6.011799 -20.77775 -2.23143 -94.88772 26.74507 23.61213 0 0 -16.71361 10.40125 15.90847 3.801104
0.942992 103.0982 7.181352 -0.4392169 1.885924 0.6672577 6.084928 -26.95694 8.134793 -0 30.51772 -0 -5.753775 -11.48543 -2.357429 -6.386879 11.62822 -21.25831 -0 5.495588 -0 7.165656 -20.51035 25.05541 -1.160559 -2.371205 4.968093 2.877242 10.26856 -7.713656 1.823065 21.11743 5.852353 2.691375 -26.69792 9.590407 5.723695 -18.53921 10.66154 88.00773 34.77376 -22.59257 -0 0 12.72605 -5.548255 8.228188 2.888942 6.132653 -21.0903 -2.429117 -94.20057 26.69052 22.88098 0 0 -18.46706 10.50082 15.0563 3.932806
1.182426 102.595 9.9633 -0.8411124 2.42681 0.8697262 6.900514 -30.34083 7.470782 -0 26.75476 -0 -6.408369 -9.076245 -1.895714 -6.197902 12.25192 -20.104 -0 6.571891 -0 7.751032 -21.20846 24.34496 -0.9834147 -2.123241 4.785543 2.969931 10.28918 -7.885514 1.753702 20.85243 6.138287 2.877968 -26.9819 9.692709 5.660834 -18.38466 10.75551 88.60763 34.93554 -23.30272 -0 0 12.06097 -5.580577 8.290532 2.98962 6.217814 -21.3632 -2.612447 -93.57036 26.6431 22.22241 0 0 -19.97359 10.5481 14.30165 4.091698
1.427476 101.969 13.28208 -1.12167 2.804546 1.156394 7.384444 -32.93752 6.416105 -0 22.82654 -0 -7.278636 -6.672652 -1.346198 -6.086073 13.08281 -18.81794 -0 8.23845 -0 8.124384 -21.55335 23.25428 -0.8447317 -1.894921 4.627171 3.039471 10.31595 -8.03281 1.67804 20.62982 6.382726 3.04074 -27.17385 9.740595 5.593891 -18.23831 10.84392 89.13237 35.11891 -23.87591 -0 0 11.44404 -5.734728 8.382017 3.168496 6.276131 -21.61545 -2.774997 -92.93667 26.54989 21.57064 0 0 -21.31121 10.56392 13.57885 4.243145
1.664343 101.2973 17.18242 -1.308262 2.928107 1.528135 7.491237 -34.41793 4.888483 -0 19.0642 -0 -8.380867 -4.491105 -0.7228406 -5.998934 14.01108 -17.37547 -0 10.7188 -0 7.961383 -21.41299 21.6405 -0.7491395 -1.697701 4.510973 3.070937 10.35408 -8.139789 1.601192 20.46757 6.562648 3.168946 -27.24504 9.717857 5.527281 -18.11134 10.91918 89.55019 35.32213 -24.27301 -0 0 10.9155 -6.027162 8.502004 3.426054 6.298807 -21.83142 -2.916755 -92.34477 26.43469 20.98396 0 0 -22.3972 10.51691 12.92893 4.42387
1.882715 100.698 21.68754 -1.483334 2.859404 1.963871 7.461327 -34.73494 3.302776 -0 15.90102 -0 -9.46487 -2.676542 -0.1688123 -5.84617 14.79464 -15.80914 -0 14.26172 -0 7.01474 -20.64877 19.4962 -0.7012178 -1.53415 4.444009 3.061528 10.40488 -8.202826 1.521066 20.36705 6.677257 3.261728 -27.18706 9.618748 5.460996 -18.01019 10.984 89.84066 35.54339 -24.4691 -0 0 10.49474 -6.479674 8.656701 3.773896 6.284718 -22.00608 -3.031759 -91.8023 26.28793 20.47603 0 0 -23.20344 10.39891 12.35255 4.635646
2.077685 100.2962 26.78803 -1.684707 2.570232 2.403113 7.492033 -33.80434 2.013486 -0 13.67704 -0 -10.31143 -1.331936 0.18049 -5.556197 15.15554 -14.1601 -0 19.11267 -0 5.251746 -19.0951 16.95794 -0.7012525 -1.408079 4.436346 3.004776 10.46867 -8.214394 1.439733 20.33155 6.722804 3.317983 -26.99526 9.442212 5.395602 -17.94571 11.03747 89.98136 35.77384 -24.44067 -0 0 10.21247 -7.10204 8.844657 4.212399 6.232407 -22.12975 -3.117048 -91.33592 26.12199 20.08453 0 0 -23.69444 10.19401 11.8632 4.89748
2.252478 100.2137 32.43093 -1.921751 2.044609 2.753715 7.727013 -31.66109 1.350017 -0 12.61664 -0 -10.73342 -0.5094035 0.2053392 -5.086451 14.78648 -12.51578 -0 25.41314 -0 2.885824 -16.68443 14.35435 -0.7492674 -1.320073 4.495947 2.896907 10.54276 -8.168049 1.358081 20.36009 6.702345 3.339569 -26.67365 9.193289 5.329417 -17.92981 11.0809 89.94763 36.00314 -24.16048 -0 0 10.09855 -7.903118 9.062754 4.745086 6.141191 -22.19188 -3.167353 -90.9655 25.94304 19.84153 0 0 -23.84685 9.89393 11.46313 5.217726
2.415167 100.5386 38.50834 -2.134344 1.231564 2.905113 8.101096 -28.39438 1.350273 -0 12.63467 -0 -10.7122 -0.2224242 -0.1187247 -4.467774 13.42544 -10.96347 -0 33.08222 -0 0.3786199 -13.56919 12.13769 -0.8425892 -1.267931 4.629243 2.735001 10.62202 -8.057192 1.277787 20.44919 6.622711 3.330268 -26.23462 8.883179 5.259489 -17.97527 11.11532 89.71702 36.21937 -23.60382 -0 0 10.18135 -8.884135 9.303267 5.372608 6.010538 -22.18083 -3.178436 -90.71044 25.76214 19.7806 0 0 -23.64986 9.493963 11.14986 5.604193
2.570793 101.3024 44.85398 -2.205462 0.09528234 2.76539 8.382744 -24.15489 1.773804 -0 13.28467 -0 -10.40554 -0.4554069 -0.7061859 -3.807323 10.91368 -9.57793 -0 41.6472 -0 -1.735825 -10.2016 10.72329 -0.9769665 -1.245748 4.839543 2.518305 10.69941 -7.876652 1.199968 20.59218 6.49534 3.29573 -25.6973 8.527309 5.181397 -18.09326 11.14257 89.27231 36.41111 -22.75036 -0 0 10.48119 -10.04273 9.556533 6.096504 5.839847 -22.08592 -3.147165 -90.58177 25.58786 19.9266 0 0 -23.11087 8.99536 10.91073 6.059221
2.711483 102.451 51.25917 -2.003929 -1.356636 2.308034 8.308316 -19.12604 2.220815 -0 13.83805 -0 -10.06358 -1.146597 -1.387947 -3.239516 7.246455 -8.398755 -0 50.10662 -0 -3.06349 -7.236413 10.33328 -1.145948 -1.244222 5.12596 2.24849 10.76734 -7.624182 1.125314 20.77928 6.335384 3.24308 -25.086 8.143844 5.090062 -18.29125 11.16506 88.60777 36.56722 -21.59242 -0 0 11.00573 -11.37262 9.812605 6.917293 5.629082 -21.90005 -3.073244 -90.58049 25.42699 20.29152 0 0 -22.25962 8.403788 10.7241 6.582759
2.814205 103.8279 57.51466 -1.474818 -3.028304 1.603111 7.767379 -13.51595 2.372566 -0 13.60656 -0 -9.85935 -2.20237 -1.985126 -2.820106 2.586619 -7.434245 -0 56.9301 -0 -3.532096 -5.263816 10.94256 -1.341383 -1.251504 5.482926 1.930081 10.81889 -7.301781 1.053815 20.99769 6.160957 3.180462 -24.42739 7.751729 4.980508 -18.57148 11.1862 87.73218 36.67591 -20.1395 -0 0 11.74774 -12.866 10.06424 7.834307 5.379485 -21.62144 -2.959599 -90.69612 25.28202 20.87055 0 0 -21.14772 7.728112 10.56029 7.172889
2.85444 105.1823 63.47154 -0.7166167 -4.723918 0.7922971 6.895536 -7.57231 2.158618 -0 12.33457 -0 -9.768953 -3.554833 -2.378683 -2.444201 -2.745171 -6.65484 -0 60.36051 -0 -3.417868 -4.524029 12.33293 -1.553679 -1.254838 5.900448 1.57075 10.84888 -6.916228 0.985206 21.2321 5.991816 3.116312 -23.7489 7.369957 4.849036 -18.93048 11.21025 86.66981 36.72333 -18.42174 -0 0 12.68632 -14.51175 10.30843 8.842719 5.094531 -21.25406 -2.812252 -90.90956 25.15095 21.64311 0 0 -19.84355 6.979862 10.3863 7.825856
2.830144 106.2244 69.0938 0.01964025 -6.182704 0.007706904 6.009075 -1.625827 1.743948 -0 10.39038 -0 -9.605311 -5.230812 -2.537549 -1.87762 -8.291273 -5.97981 -0 59.05939 -0 -3.183618 -4.795593 14.17395 -1.7722 -1.242659 6.364764 1.181679 10.85431 -6.478861 0.9196991 21.46576 5.847325 3.05829 -23.07788 7.017402 4.694484 -19.35897 11.24174 85.45921 36.69309 -16.49089 -0 0 13.78947 -16.28873 10.54583 9.92894 4.780758 -20.80685 -2.639574 -91.19816 25.02755 22.5763 0 0 -18.4236 6.175095 10.1726 8.532953
2.774113 106.7222 74.46842 0.4417269 -7.172791 -0.7016274 5.41476 3.917902 1.358263 -0 8.562844 -0 -9.179018 -7.331642 -2.501244 -0.9199261 -13.5016 -5.297627 -0 52.85926 -0 -3.203591 -5.535887 16.10443 -1.985467 -1.206945 6.858488 0.7779918 10.83466 -6.005482 0.858771 21.6822 5.743361 3.012043 -22.44128 6.712225 4.519481 -19.84111 11.28401 84.15345 36.56855 -14.42266 -0 0 15.01464 -18.15382 10.77759 11.06426 4.448727 -20.29385 -2.451771 -91.54029 24.90323 23.62729 0 0 -16.96496 5.338426 9.90114 9.275441
2.740009 106.5931 79.76274 0.3885141 -7.597386 -1.369755 5.214138 8.702954 1.125465 -0 7.596205 -0 -8.451851 -9.87558 -2.333516 0.3896332 -17.84153 -4.568626 -0 43.13068 -0 -3.570439 -6.190174 17.83293 -2.181453 -1.145327 7.359916 0.3787436 10.79264 -5.517138 0.8052187 21.86717 5.688612 2.980456 -21.86453 6.469152 4.331151 -20.35289 11.3377 82.82234 36.33904 -12.32028 -0 0 16.30527 -20.03126 11.00123 12.20049 4.114093 -19.73691 -2.260928 -91.91567 24.76976 24.74121 0 0 -15.54298 4.506298 9.571179 10.02084
2.776528 105.9301 85.16059 -0.0482802 -7.538745 -2.055203 5.219969 12.59243 1.020216 -0 7.833821 -0 -7.567389 -12.57196 -2.073818 1.676728 -20.95749 -3.952619 -0 32.37569 -0 -4.120469 -6.487001 19.21937 -2.348282 -1.062152 7.842096 0.00581166 10.73541 -5.041602 0.7620224 22.00997 5.682123 2.964156 -21.36866 6.294833 4.140752 -20.86087 11.40021 81.55402 36.00867 -10.31604 -0 0 17.58624 -21.81402 11.20881 13.27221 3.798334 -19.17027 -2.081313 -92.3003 24.62219 25.8455 0 0 -14.23479 3.725012 9.199208 10.7255
2.915003 104.9526 90.81961 -0.5522312 -7.206804 -2.785551 5.043382 15.70579 0.9525664 -0 9.258254 -0 -6.742855 -14.6904 -1.714475 2.37318 -22.78988 -3.793968 -0 23.18792 -0 -4.617135 -6.533866 20.26276 -2.47537 -0.9674166 8.273136 -0.3184553 10.67537 -4.613839 0.7305851 22.1033 5.714634 2.963288 -20.9667 6.184508 3.962199 -21.32368 11.46724 80.45009 35.60241 -8.564227 -0 0 18.76399 -23.38502 11.39151 14.2083 3.527936 -18.64285 -1.929258 -92.65918 24.46063 26.84673 0 0 -13.12445 3.04082 8.811527 11.34616
3.171804 103.927 96.85653 -0.7573194 -6.834652 -3.526564 4.320546 18.23239 0.8938945 -0 11.85866 -0 -6.108842 -15.18383 -1.218145 2.046194 -23.49583 -4.391075 -0 17.23102 -0 -4.896516 -6.645776 21.00667 -2.554398 -0.8731074 8.618904 -0.5740699 10.62937 -4.273188 0.7100128 22.14161 5.774411 2.979332 -20.66149 6.124441 3.810114 -21.6969 11.5359 79.61204 35.16347 -7.222884 -0 0 19.7358 -24.6527 11.55148 14.94903 3.330805 -18.21291 -1.822528 -92.94352 24.2896 27.63712 0 0 -12.30319 2.48525 8.432896 11.85664
3.549133 103.1117 103.3344 -0.4597278 -6.588237 -4.169753 2.953414 20.13262 0.9344173 -0 15.94572 -0 -5.635782 -13.11769 -0.5838604 0.6760975 -23.21549 -5.722303 -0 14.8363 -0 -4.868263 -7.049037 21.45616 -2.579608 -0.78827 8.8477 -0.7457412 10.61556 -4.056875 0.6984103 22.11952 5.85439 3.015379 -20.44641 6.100212 3.697926 -21.93978 11.60717 79.12414 34.74035 -6.4298 -0 0 20.40588 -25.58183 11.71394 15.46013 3.230343 -17.93524 -1.77941 -93.09646 24.11554 28.11097 0 0 -11.8613 2.064277 8.077544 12.26009
